<svg width="24" height="24" viewBox="0 0 14 14" fill="none" xmlns="http://www.w3.org/2000/svg">
<path d="M6 1.05C6.10614 0.880563 6.25358 0.740876 6.4285 0.644045C6.60342 0.547214 6.80007 0.496414 7 0.496414C7.19993 0.496414 7.39658 0.547214 7.5715 0.644045C7.74642 0.740876 7.89386 0.880563 8 1.05L9.94 4.12L12.47 4.43C12.6798 4.45344 12.8793 4.5337 13.0469 4.66214C13.2144 4.79058 13.3438 4.96232 13.4209 5.15884C13.4981 5.35537 13.5202 5.56923 13.4848 5.77737C13.4494 5.98551 13.3578 6.18004 13.22 6.34L11.11 8.76L11.79 12.11C11.8326 12.3286 11.812 12.5548 11.7305 12.762C11.649 12.9693 11.5101 13.149 11.33 13.28C11.1477 13.4086 10.9328 13.4834 10.71 13.4958C10.4872 13.5081 10.2655 13.4576 10.07 13.35L7 11.67L3.93 13.35C3.73454 13.4576 3.51275 13.5081 3.28996 13.4958C3.06716 13.4834 2.85234 13.4086 2.67 13.28C2.48993 13.149 2.35099 12.9693 2.26951 12.762C2.18802 12.5548 2.16738 12.3286 2.21 12.11L2.89 8.76L0.780001 6.34C0.642186 6.18004 0.550641 5.98551 0.515231 5.77737C0.479821 5.56923 0.501891 5.35537 0.57906 5.15884C0.65623 4.96232 0.785573 4.79058 0.953148 4.66214C1.12072 4.5337 1.32017 4.45344 1.53 4.43L4.06 4.12L6 1.05Z" stroke="#393939" stroke-linecap="round" stroke-linejoin="round"/>
<path d="M7 9.51999V5.51999H6" stroke="#393939" stroke-linecap="round" stroke-linejoin="round"/>
<path d="M5.5 9.51999H8.5" stroke="#393939" stroke-linecap="round" stroke-linejoin="round"/>
</svg>
