<svg width="25" height="24" viewBox="0 0 15 14" fill="none" xmlns="http://www.w3.org/2000/svg">
<path d="M3.5 7.00014V4.37014C3.50781 3.85317 3.61755 3.34283 3.82294 2.86835C4.02832 2.39386 4.32532 1.96457 4.6969 1.60506C5.06848 1.24556 5.50735 0.962907 5.98836 0.773304C6.46936 0.583702 6.98306 0.490875 7.5 0.500143V0.500143C8.01694 0.490875 8.53064 0.583702 9.01164 0.773304C9.49265 0.962907 9.93152 1.24556 10.3031 1.60506C10.6747 1.96457 10.9717 2.39386 11.1771 2.86835C11.3824 3.34283 11.4922 3.85317 11.5 4.37014V7.00014" stroke="#393939" stroke-linecap="round" stroke-linejoin="round"/>
<path d="M2 5.5H3C3.13261 5.5 3.25979 5.55268 3.35355 5.64645C3.44732 5.74021 3.5 5.86739 3.5 6V9C3.5 9.13261 3.44732 9.25979 3.35355 9.35355C3.25979 9.44732 3.13261 9.5 3 9.5H2C1.73478 9.5 1.48043 9.39464 1.29289 9.20711C1.10536 9.01957 1 8.76522 1 8.5V6.5C1 6.23478 1.10536 5.98043 1.29289 5.79289C1.48043 5.60536 1.73478 5.5 2 5.5V5.5Z" stroke="#393939" stroke-linecap="round" stroke-linejoin="round"/>
<path d="M13 9.5H12C11.8674 9.5 11.7402 9.44732 11.6464 9.35355C11.5527 9.25979 11.5 9.13261 11.5 9V6C11.5 5.86739 11.5527 5.74021 11.6464 5.64645C11.7402 5.55268 11.8674 5.5 12 5.5H13C13.2652 5.5 13.5196 5.60536 13.7071 5.79289C13.8946 5.98043 14 6.23478 14 6.5V8.5C14 8.76522 13.8946 9.01957 13.7071 9.20711C13.5196 9.39464 13.2652 9.5 13 9.5V9.5Z" stroke="#393939" stroke-linecap="round" stroke-linejoin="round"/>
<path d="M9.5 12.25C10.0304 12.25 10.5391 12.0393 10.9142 11.6642C11.2893 11.2891 11.5 10.7804 11.5 10.25V8" stroke="#393939" stroke-linecap="round" stroke-linejoin="round"/>
<path d="M9.5 12.25C9.5 12.5815 9.3683 12.8995 9.13388 13.1339C8.89946 13.3683 8.58152 13.5 8.25 13.5H6.75C6.41848 13.5 6.10054 13.3683 5.86612 13.1339C5.6317 12.8995 5.5 12.5815 5.5 12.25C5.5 11.9185 5.6317 11.6005 5.86612 11.3661C6.10054 11.1317 6.41848 11 6.75 11H8.25C8.58152 11 8.89946 11.1317 9.13388 11.3661C9.3683 11.6005 9.5 11.9185 9.5 12.25Z" stroke="#393939" stroke-linecap="round" stroke-linejoin="round"/>
</svg>
