<svg width="14" height="14" viewBox="0 0 14 14" fill="none" xmlns="http://www.w3.org/2000/svg">
<path d="M10.5 7.99992C10.5023 7.37584 10.3378 6.7625 10.0233 6.22342C9.70891 5.68433 9.25607 5.23913 8.71171 4.93392C8.16735 4.62872 7.55129 4.47461 6.92735 4.48757C6.30341 4.50053 5.69428 4.68008 5.16306 5.00763C4.63185 5.33518 4.19788 5.7988 3.9061 6.35047C3.61433 6.90215 3.47537 7.5218 3.50362 8.14524C3.53187 8.76868 3.72629 9.37322 4.06676 9.89625C4.40723 10.4193 4.88135 10.8418 5.44001 11.1199V12.8399C5.44262 12.9416 5.48485 13.0383 5.55771 13.1092C5.63057 13.1802 5.72828 13.22 5.83001 13.2199H8.17001C8.27173 13.22 8.36944 13.1802 8.4423 13.1092C8.51516 13.0383 8.5574 12.9416 8.56001 12.8399V11.0899C9.13625 10.8031 9.62222 10.3629 9.96449 9.8177C10.3068 9.27255 10.4921 8.64356 10.5 7.99992V7.99992Z" stroke="#000001" stroke-linecap="round" stroke-linejoin="round"/>
<path d="M7 0.810059V2.31006" stroke="#000001" stroke-linecap="round" stroke-linejoin="round"/>
<path d="M11 2.24023L9.94 3.31023" stroke="#000001" stroke-linecap="round" stroke-linejoin="round"/>
<path d="M13.28 5.33984H11.78" stroke="#000001" stroke-linecap="round" stroke-linejoin="round"/>
<path d="M3 2.24023L4.06 3.31023" stroke="#000001" stroke-linecap="round" stroke-linejoin="round"/>
<path d="M0.720001 5.33984H2.22" stroke="#000001" stroke-linecap="round" stroke-linejoin="round"/>
</svg>
